<svg xmlns="http://www.w3.org/2000/svg" viewBox="300 110 380 380" role="img" aria-labelledby="title desc">
<title id="title">CapIX mark</title>
<desc id="desc">Cyan geometric mark from the CapIX Capacity Inference Exchange logo.</desc>
<rect width="1800" height="600" fill="none"/>
<g transform="translate(324,135)"><g transform="translate(0.0000,0.5935) scale(0.074191)">
<g transform="translate(0,4432) scale(0.01,-0.01)" fill="#3DCED6" fill-rule="evenodd">
  <path d="M9200 435100 c0 -55 -115 -100 -255 -100 -327 0 -745 -418 -745 -745
0 -140 -45 -255 -100 -255 -55 0 -100 -135 -100 -300 0 -165 45 -300 100 -300
67 0 100 -25867 100 -77400 0 -51533 -33 -77400 -100 -77400 -55 0 -100 -180
-100 -400 0 -220 45 -400 100 -400 55 0 100 -70 100 -155 0 -175 435 -645 598
-645 139 0 1002 -862 1002 -1001 0 -138 662 -799 800 -799 139 0 800 -661 800
-800 0 -139 661 -800 800 -800 139 0 800 -661 800 -800 0 -139 661 -800 800
-800 139 0 800 -661 800 -800 0 -139 661 -800 800 -800 139 0 800 -661 800
-800 0 -139 661 -800 800 -800 139 0 800 -661 800 -800 0 -139 661 -800 800
-800 139 0 800 -661 800 -800 0 -139 661 -800 800 -800 139 0 800 -661 800
-800 0 -139 661 -800 800 -800 139 0 800 -661 800 -800 0 -139 661 -800 800
-800 139 0 800 -661 800 -800 0 -139 661 -800 800 -800 139 0 800 -661 800
-800 0 -139 661 -800 800 -800 139 0 800 -661 800 -800 0 -139 661 -800 800
-800 139 0 800 -661 800 -800 0 -139 661 -800 800 -800 139 0 800 -661 800
-800 0 -139 661 -800 800 -800 139 0 800 -661 800 -800 0 -139 661 -800 800
-800 139 0 800 -661 800 -800 0 -139 661 -800 800 -800 139 0 800 -661 800
-800 0 -139 661 -800 800 -800 139 0 800 -661 800 -800 0 -139 661 -800 800
-800 139 0 800 -661 800 -800 0 -139 661 -800 800 -800 139 0 800 -661 800
-800 0 -139 661 -800 800 -800 139 0 800 -661 800 -800 0 -139 661 -800 800
-800 139 0 800 -661 800 -800 0 -139 661 -800 800 -800 139 0 800 -661 800
-800 0 -139 661 -800 800 -800 139 0 800 -661 800 -800 0 -139 661 -800 800
-800 139 0 800 -661 800 -800 0 -139 661 -800 800 -800 139 0 800 -661 800
-800 0 -139 661 -800 800 -800 139 0 800 -661 800 -800 0 -139 661 -800 800
-800 139 0 800 -661 800 -800 0 -139 661 -800 800 -800 139 0 800 -661 800
-800 0 -139 661 -800 800 -800 139 0 800 -661 800 -800 0 -139 661 -800 800
-800 139 0 800 -661 800 -800 0 -139 661 -800 800 -800 139 0 800 -661 800
-800 0 -139 661 -800 800 -800 139 0 800 -661 800 -800 0 -139 661 -800 800
-800 139 0 800 -661 800 -800 0 -139 661 -800 800 -800 139 0 800 -661 800
-800 0 -139 661 -800 800 -800 139 0 800 -661 800 -800 0 -139 661 -800 800
-800 139 0 800 -662 800 -801 0 -140 459 -599 598 -599 140 0 1002 -862 1002
-1002 0 -203 492 -598 745 -598 140 0 255 -45 255 -100 0 -55 90 -100 200
-100 110 0 200 45 200 100 0 55 225 100 500 100 275 0 500 -45 500 -100 0 -55
90 -100 200 -100 125 0 200 -67 200 -178 0 -98 90 -243 200 -322 110 -79 200
-204 200 -277 0 -171 452 -623 623 -623 73 0 198 -90 277 -200 79 -110 224
-200 322 -200 111 0 178 -75 178 -200 0 -110 45 -200 100 -200 60 0 100 -385
100 -955 0 -965 198 -1445 598 -1445 139 0 1002 -862 1002 -1001 0 -138 662
-799 800 -799 139 0 800 -661 800 -800 0 -139 661 -800 800 -800 139 0 800
-661 800 -800 0 -139 661 -800 800 -800 139 0 800 -662 800 -801 0 -140 459
-599 598 -599 140 0 1002 -862 1002 -1002 0 -203 492 -598 745 -598 140 0 255
-45 255 -100 0 -55 135 -100 300 -100 165 0 300 45 300 100 0 278 908 99 1253
-247 347 -346 347 -346 347 -1457 0 -1423 -25 -1396 1343 -1396 638 0 1057
-40 1057 -100 0 -55 90 -100 200 -100 125 0 200 -67 200 -178 0 -98 90 -243
200 -322 110 -79 200 -204 200 -277 0 -158 446 -623 598 -623 139 0 1002 -862
1002 -1001 0 -138 662 -799 800 -799 139 0 800 -661 800 -800 0 -139 661 -800
800 -800 139 0 800 -661 800 -800 0 -139 661 -800 800 -800 139 0 800 -661
800 -800 0 -139 661 -800 800 -800 139 0 800 -661 800 -800 0 -139 661 -800
800 -800 139 0 800 -661 800 -800 0 -139 661 -800 800 -800 139 0 800 -662
800 -801 0 -153 465 -599 623 -599 73 0 198 -90 277 -200 79 -110 224 -200
322 -200 111 0 178 -75 178 -200 0 -110 45 -200 100 -200 60 0 100 -419 100
-1057 0 -1362 -19 -1343 1343 -1343 638 0 1057 -40 1057 -100 0 -55 90 -100
200 -100 125 0 200 -67 200 -178 0 -98 90 -243 200 -322 110 -79 200 -204 200
-277 0 -158 446 -623 598 -623 139 0 1002 -862 1002 -1001 0 -138 662 -799
800 -799 139 0 800 -661 800 -800 0 -139 661 -800 800 -800 139 0 800 -661
800 -800 0 -139 661 -800 800 -800 139 0 800 -661 800 -800 0 -139 661 -800
800 -800 139 0 800 -661 800 -800 0 -139 661 -800 800 -800 139 0 800 -661
800 -800 0 -139 661 -800 800 -800 139 0 800 -661 800 -800 0 -59 156 -263
347 -453 190 -191 394 -347 453 -347 59 0 263 -156 453 -347 191 -190 347
-394 347 -453 0 -59 156 -263 347 -453 190 -191 394 -347 453 -347 59 0 263
-156 453 -347 191 -190 347 -394 347 -453 0 -59 156 -263 347 -453 190 -191
394 -347 453 -347 59 0 263 -156 453 -347 191 -190 347 -394 347 -453 0 -59
156 -263 347 -453 190 -191 394 -347 453 -347 59 0 263 -156 453 -347 191
-190 347 -394 347 -453 0 -59 156 -263 347 -453 190 -191 394 -347 453 -347
59 0 263 -156 453 -347 191 -190 347 -394 347 -453 0 -59 156 -263 347 -453
190 -191 394 -347 453 -347 59 0 263 -156 453 -347 191 -190 347 -394 347
-453 0 -59 156 -263 347 -453 190 -191 394 -347 453 -347 59 0 263 -156 453
-347 191 -190 347 -394 347 -453 0 -59 156 -263 347 -453 190 -191 394 -347
453 -347 59 0 263 -156 453 -347 191 -190 347 -394 347 -453 0 -59 156 -263
347 -453 190 -191 394 -347 453 -347 59 0 263 -156 453 -347 191 -190 347
-394 347 -453 0 -59 156 -263 347 -453 190 -191 394 -347 453 -347 139 0 800
-662 800 -801 0 -140 459 -599 598 -599 139 0 1002 -862 1002 -1001 0 -163
674 -799 847 -799 84 0 153 -80 153 -178 0 -98 90 -243 200 -322 110 -79 200
-204 200 -277 0 -538 934 -798 1355 -378 258 259 379 1555 145 1555 -67 0
-100 26567 -100 79500 0 52933 33 79500 100 79500 55 0 100 90 100 200 0 125
67 200 178 200 98 0 243 90 322 200 79 110 204 200 277 200 158 0 623 446 623
599 0 139 661 801 800 801 139 0 800 661 800 800 0 59 156 263 347 453 190
191 394 347 453 347 139 0 800 661 800 800 0 59 156 263 347 453 190 191 394
347 453 347 59 0 263 156 453 347 191 190 347 394 347 453 0 139 661 800 800
800 139 0 800 661 800 800 0 59 156 263 347 453 190 191 394 347 453 347 139
0 800 661 800 800 0 59 156 263 347 453 190 191 394 347 453 347 139 0 800
661 800 800 0 59 156 263 347 453 190 191 394 347 453 347 139 0 800 661 800
800 0 59 156 263 347 453 190 191 394 347 453 347 59 0 263 156 453 347 191
190 347 394 347 453 0 59 156 263 347 453 190 191 394 347 453 347 139 0 800
661 800 800 0 139 661 800 800 800 139 0 800 661 800 800 0 139 661 800 800
800 139 0 800 661 800 800 0 139 661 800 800 800 139 0 800 661 800 800 0 139
661 800 800 800 139 0 800 661 800 800 0 139 661 800 800 800 139 0 800 661
800 800 0 139 661 800 800 800 139 0 800 661 800 800 0 139 661 800 800 800
139 0 800 661 800 800 0 139 661 800 800 800 139 0 800 661 800 800 0 139 661
800 800 800 138 0 800 661 800 799 0 139 863 1001 1002 1001 400 0 598 480
598 1445 0 570 40 955 100 955 55 0 100 90 100 200 0 125 67 200 178 200 98 0
243 90 322 200 79 110 204 200 277 200 158 0 623 446 623 599 0 139 661 801
800 801 139 0 800 661 800 800 0 139 661 800 800 800 139 0 800 661 800 800 0
139 661 800 800 800 139 0 800 661 800 800 0 139 661 800 800 800 139 0 800
661 800 800 0 139 661 800 800 800 139 0 800 661 800 800 0 139 661 800 800
800 139 0 800 661 800 800 0 139 661 800 800 800 139 0 800 661 800 800 0 139
661 800 800 800 139 0 800 661 800 800 0 139 661 800 800 800 139 0 800 661
800 800 0 139 661 800 800 800 139 0 800 661 800 800 0 139 661 800 800 800
139 0 800 661 800 800 0 139 661 800 800 800 139 0 800 661 800 800 0 139 661
800 800 800 139 0 800 661 800 800 0 139 661 800 800 800 139 0 800 661 800
800 0 139 661 800 800 800 139 0 800 661 800 800 0 139 661 800 800 800 139 0
800 661 800 800 0 139 661 800 800 800 139 0 800 661 800 800 0 139 661 800
800 800 139 0 800 661 800 800 0 139 661 800 800 800 139 0 800 661 800 800 0
139 661 800 800 800 139 0 800 661 800 800 0 139 661 800 800 800 138 0 800
661 800 799 0 139 863 1001 1002 1001 400 0 598 480 598 1445 0 570 40 955
100 955 55 0 100 90 100 200 0 125 67 200 178 200 98 0 243 90 322 200 79 110
204 200 277 200 158 0 623 446 623 599 0 139 661 801 800 801 139 0 800 661
800 800 0 139 661 800 800 800 139 0 800 661 800 800 0 139 661 800 800 800
139 0 800 661 800 800 0 139 661 800 800 800 139 0 800 661 800 800 0 139 661
800 800 800 139 0 800 661 800 800 0 139 661 800 800 800 139 0 800 661 800
800 0 139 661 800 800 800 139 0 800 661 800 800 0 139 661 800 800 800 139 0
800 661 800 800 0 139 661 800 800 800 139 0 800 661 800 800 0 139 661 800
800 800 139 0 800 661 800 800 0 139 661 800 800 800 139 0 800 661 800 800 0
139 661 800 800 800 139 0 800 661 800 800 0 139 661 800 800 800 139 0 800
661 800 800 0 139 661 800 800 800 139 0 800 661 800 800 0 139 661 800 800
800 139 0 800 661 800 800 0 139 661 800 800 800 139 0 800 661 800 800 0 139
661 800 800 800 139 0 800 661 800 800 0 139 661 800 800 800 138 0 800 661
800 799 0 139 863 1001 1002 1001 400 0 598 480 598 1445 0 570 40 955 100
955 55 0 100 90 100 200 0 125 67 200 178 200 98 0 243 90 322 200 79 110 204
200 277 200 158 0 623 446 623 599 0 139 661 801 800 801 139 0 800 661 800
800 0 139 661 800 800 800 139 0 800 661 800 800 0 139 661 800 800 800 139 0
800 661 800 800 0 139 661 800 800 800 139 0 800 661 800 800 0 139 661 800
800 800 139 0 800 661 800 800 0 139 661 800 800 800 139 0 800 661 800 800 0
139 661 800 800 800 138 0 800 661 800 799 0 138 863 1001 1001 1001 163 0
799 674 799 847 0 84 80 153 178 153 98 0 243 90 322 200 79 110 204 200 277
200 250 0 623 479 623 800 0 540 -372 800 -1145 800 -370 0 -655 -44 -655
-100 0 -67 -40233 -100 -120500 -100 -80267 0 -120500 33 -120500 100 0 55
-135 100 -300 100 -165 0 -300 -45 -300 -100z"/>
  <path d="M281000 435100 c0 -55 -70 -100 -155 -100 -175 0 -645 -435 -645
-598 0 -140 -862 -1002 -1002 -1002 -139 0 -598 -459 -598 -599 0 -139 -661
-801 -800 -801 -59 0 -263 -156 -453 -347 -191 -190 -347 -394 -347 -453 0
-59 -156 -263 -347 -453 -190 -191 -394 -347 -453 -347 -59 0 -263 -156 -453
-347 -191 -190 -347 -394 -347 -453 0 -59 -156 -263 -347 -453 -190 -191 -394
-347 -453 -347 -59 0 -263 -156 -453 -347 -191 -190 -347 -394 -347 -453 0
-59 -156 -263 -347 -453 -190 -191 -394 -347 -453 -347 -59 0 -263 -156 -453
-347 -191 -190 -347 -394 -347 -453 0 -59 -156 -263 -347 -453 -190 -191 -394
-347 -453 -347 -59 0 -263 -156 -453 -347 -191 -190 -347 -394 -347 -453 0
-59 -156 -263 -347 -453 -190 -191 -394 -347 -453 -347 -59 0 -263 -156 -453
-347 -191 -190 -347 -394 -347 -453 0 -59 -156 -263 -347 -453 -190 -191 -394
-347 -453 -347 -59 0 -263 -156 -453 -347 -191 -190 -347 -394 -347 -453 0
-59 -156 -263 -347 -453 -190 -191 -394 -347 -453 -347 -59 0 -263 -156 -453
-347 -191 -190 -347 -394 -347 -453 0 -59 -156 -263 -347 -453 -190 -191 -394
-347 -453 -347 -59 0 -263 -156 -453 -347 -191 -190 -347 -394 -347 -453 0
-59 -156 -263 -347 -453 -190 -191 -394 -347 -453 -347 -139 0 -800 -661 -800
-800 0 -139 -661 -800 -800 -800 -138 0 -800 -661 -800 -799 0 -139 -863
-1001 -1002 -1001 -400 0 -598 -480 -598 -1445 0 -570 -40 -955 -100 -955 -55
0 -100 -90 -100 -200 0 -125 -67 -200 -178 -200 -98 0 -243 -90 -322 -200 -79
-110 -204 -200 -277 -200 -158 0 -623 -446 -623 -599 0 -139 -661 -801 -800
-801 -139 0 -800 -661 -800 -800 0 -139 -661 -800 -800 -800 -139 0 -800 -661
-800 -800 0 -139 -661 -800 -800 -800 -59 0 -263 -156 -453 -347 -191 -190
-347 -394 -347 -453 0 -59 -156 -263 -347 -453 -190 -191 -394 -347 -453 -347
-59 0 -263 -156 -453 -347 -191 -190 -347 -394 -347 -453 0 -59 -156 -263
-347 -453 -190 -191 -394 -347 -453 -347 -59 0 -263 -156 -453 -347 -191 -190
-347 -394 -347 -453 0 -59 -156 -263 -347 -453 -190 -191 -394 -347 -453 -347
-59 0 -263 -156 -453 -347 -191 -190 -347 -394 -347 -453 0 -59 -156 -263
-347 -453 -190 -191 -394 -347 -453 -347 -59 0 -263 -156 -453 -347 -191 -190
-347 -394 -347 -453 0 -59 -156 -263 -347 -453 -190 -191 -394 -347 -453 -347
-59 0 -263 -156 -453 -347 -191 -190 -347 -394 -347 -453 0 -59 -156 -263
-347 -453 -190 -191 -394 -347 -453 -347 -59 0 -263 -156 -453 -347 -191 -190
-347 -394 -347 -453 0 -59 -156 -263 -347 -453 -190 -191 -394 -347 -453 -347
-59 0 -263 -156 -453 -347 -191 -190 -347 -394 -347 -453 0 -59 -156 -263
-347 -453 -190 -191 -394 -347 -453 -347 -59 0 -263 -156 -453 -347 -191 -190
-347 -394 -347 -453 0 -59 -156 -263 -347 -453 -190 -191 -394 -347 -453 -347
-59 0 -263 -156 -453 -347 -191 -190 -347 -394 -347 -453 0 -59 -156 -263
-347 -453 -190 -191 -394 -347 -453 -347 -59 0 -263 -156 -453 -347 -191 -190
-347 -394 -347 -453 0 -59 -156 -263 -347 -453 -190 -191 -394 -347 -453 -347
-59 0 -263 -156 -453 -347 -191 -190 -347 -394 -347 -453 0 -59 -156 -263
-347 -453 -190 -191 -394 -347 -453 -347 -59 0 -263 -156 -453 -347 -191 -190
-347 -394 -347 -453 0 -59 -156 -263 -347 -453 -190 -191 -394 -347 -453 -347
-59 0 -263 -156 -453 -347 -191 -190 -347 -394 -347 -453 0 -59 -156 -263
-347 -453 -190 -191 -394 -347 -453 -347 -59 0 -263 -156 -453 -347 -191 -190
-347 -394 -347 -453 0 -59 -156 -263 -347 -453 -190 -191 -394 -347 -453 -347
-59 0 -263 -156 -453 -347 -191 -190 -347 -394 -347 -453 0 -59 -156 -263
-347 -453 -190 -191 -394 -347 -453 -347 -59 0 -263 -156 -453 -347 -191 -190
-347 -394 -347 -453 0 -59 -156 -263 -347 -453 -190 -191 -394 -347 -453 -347
-59 0 -263 -156 -453 -347 -191 -190 -347 -394 -347 -453 0 -59 -156 -263
-347 -453 -190 -191 -394 -347 -453 -347 -59 0 -263 -156 -453 -347 -191 -190
-347 -394 -347 -453 0 -59 -156 -263 -347 -453 -190 -191 -394 -347 -453 -347
-59 0 -263 -156 -453 -347 -191 -190 -347 -394 -347 -453 0 -59 -156 -263
-347 -453 -190 -191 -394 -347 -453 -347 -59 0 -263 -156 -453 -347 -191 -190
-347 -394 -347 -453 0 -59 -156 -263 -347 -453 -190 -191 -394 -347 -453 -347
-59 0 -263 -156 -453 -347 -191 -190 -347 -394 -347 -453 0 -59 -156 -263
-347 -453 -190 -191 -394 -347 -453 -347 -59 0 -263 -156 -453 -347 -191 -190
-347 -394 -347 -453 0 -59 -156 -263 -347 -453 -190 -191 -394 -347 -453 -347
-138 0 -800 -661 -800 -799 0 -139 -863 -1001 -1002 -1001 -400 0 -598 -480
-598 -1445 0 -570 -40 -955 -100 -955 -55 0 -100 -90 -100 -200 0 -125 -67
-200 -178 -200 -98 0 -243 -90 -322 -200 -79 -110 -204 -200 -277 -200 -158 0
-623 -446 -623 -599 0 -139 -661 -801 -800 -801 -59 0 -263 -156 -453 -347
-191 -190 -347 -394 -347 -453 0 -59 -156 -263 -347 -453 -190 -191 -394 -347
-453 -347 -139 0 -800 -661 -800 -800 0 -139 -661 -800 -800 -800 -139 0 -800
-661 -800 -800 0 -139 -661 -800 -800 -800 -139 0 -800 -661 -800 -800 0 -139
-661 -800 -800 -800 -139 0 -800 -661 -800 -800 0 -139 -661 -800 -800 -800
-59 0 -263 -156 -453 -347 -191 -190 -347 -394 -347 -453 0 -139 -661 -800
-800 -800 -59 0 -263 -156 -453 -347 -191 -190 -347 -394 -347 -453 0 -139
-661 -800 -800 -800 -59 0 -263 -156 -453 -347 -191 -190 -347 -394 -347 -453
0 -139 -661 -800 -800 -800 -59 0 -263 -156 -453 -347 -191 -190 -347 -394
-347 -453 0 -139 -661 -800 -800 -800 -59 0 -263 -156 -453 -347 -191 -190
-347 -394 -347 -453 0 -139 -661 -800 -800 -800 -59 0 -263 -156 -453 -347
-191 -190 -347 -394 -347 -453 0 -139 -661 -800 -800 -800 -139 0 -800 -661
-800 -800 0 -139 -661 -800 -800 -800 -139 0 -800 -661 -800 -800 0 -59 -156
-263 -347 -453 -190 -191 -394 -347 -453 -347 -139 0 -800 -661 -800 -800 0
-59 -156 -263 -347 -453 -190 -191 -394 -347 -453 -347 -139 0 -800 -661 -800
-800 0 -59 -156 -263 -347 -453 -190 -191 -394 -347 -453 -347 -139 0 -800
-661 -800 -800 0 -59 -156 -263 -347 -453 -190 -191 -394 -347 -453 -347 -139
0 -800 -661 -800 -800 0 -59 -156 -263 -347 -453 -190 -191 -394 -347 -453
-347 -139 0 -800 -661 -800 -800 0 -59 -156 -263 -347 -453 -190 -191 -394
-347 -453 -347 -139 0 -800 -661 -800 -800 0 -59 -156 -263 -347 -453 -190
-191 -394 -347 -453 -347 -59 0 -263 -156 -453 -347 -191 -190 -347 -394 -347
-453 0 -59 -156 -263 -347 -453 -190 -191 -394 -347 -453 -347 -59 0 -263
-156 -453 -347 -191 -190 -347 -394 -347 -453 0 -139 -661 -800 -800 -800
-138 0 -800 -661 -800 -799 0 -139 -863 -1001 -1002 -1001 -408 0 -598 -477
-598 -1499 0 -1486 -228 -1701 -1804 -1701 -1423 0 -1396 25 -1396 -1343 0
-638 -40 -1057 -100 -1057 -55 0 -100 -90 -100 -200 0 -125 -67 -200 -178
-200 -98 0 -243 -90 -322 -200 -79 -110 -204 -200 -277 -200 -158 0 -623 -446
-623 -599 0 -139 -661 -801 -800 -801 -139 0 -800 -661 -800 -800 0 -59 -156
-263 -347 -453 -190 -191 -394 -347 -453 -347 -139 0 -800 -661 -800 -800 0
-59 -156 -263 -347 -453 -190 -191 -394 -347 -453 -347 -59 0 -263 -156 -453
-347 -191 -190 -347 -394 -347 -453 0 -139 -661 -800 -800 -800 -59 0 -263
-156 -453 -347 -191 -190 -347 -394 -347 -453 0 -139 -661 -800 -800 -800
-138 0 -800 -661 -800 -799 0 -138 -863 -1001 -1001 -1001 -163 0 -799 -674
-799 -847 0 -84 -80 -153 -178 -153 -98 0 -243 -90 -322 -200 -79 -110 -204
-200 -277 -200 -250 0 -623 -479 -623 -800 0 -540 372 -800 1145 -800 370 0
655 44 655 100 0 67 24967 100 74700 100 49733 0 74700 -33 74700 -100 0 -55
90 -100 200 -100 125 0 200 -67 200 -178 0 -98 90 -243 200 -322 110 -79 200
-204 200 -277 0 -424 461 -623 1445 -623 570 0 955 -40 955 -100 0 -55 90
-100 200 -100 125 0 200 -67 200 -178 0 -98 90 -243 200 -322 110 -79 200
-204 200 -277 0 -158 446 -623 598 -623 139 0 1002 -862 1002 -1001 0 -138
662 -799 800 -799 139 0 800 -661 800 -800 0 -139 661 -800 800 -800 139 0
800 -661 800 -800 0 -139 661 -800 800 -800 139 0 800 -661 800 -800 0 -139
661 -800 800 -800 139 0 800 -661 800 -800 0 -139 661 -800 800 -800 139 0
800 -661 800 -800 0 -139 661 -800 800 -800 139 0 800 -661 800 -800 0 -139
661 -800 800 -800 139 0 800 -661 800 -800 0 -139 661 -800 800 -800 139 0
800 -661 800 -800 0 -139 661 -800 800 -800 139 0 800 -661 800 -800 0 -139
661 -800 800 -800 139 0 800 -661 800 -800 0 -139 661 -800 800 -800 139 0
800 -661 800 -800 0 -139 661 -800 800 -800 139 0 800 -661 800 -800 0 -139
661 -800 800 -800 139 0 800 -661 800 -800 0 -139 661 -800 800 -800 139 0
800 -661 800 -800 0 -139 661 -800 800 -800 139 0 800 -661 800 -800 0 -139
661 -800 800 -800 139 0 800 -661 800 -800 0 -139 661 -800 800 -800 139 0
800 -661 800 -800 0 -139 661 -800 800 -800 139 0 800 -661 800 -800 0 -139
661 -800 800 -800 139 0 800 -661 800 -800 0 -139 661 -800 800 -800 139 0
800 -661 800 -800 0 -139 661 -800 800 -800 139 0 800 -661 800 -800 0 -139
661 -800 800 -800 139 0 800 -661 800 -800 0 -139 661 -800 800 -800 139 0
800 -661 800 -800 0 -139 661 -800 800 -800 139 0 800 -661 800 -800 0 -139
661 -800 800 -800 139 0 800 -661 800 -800 0 -139 661 -800 800 -800 139 0
800 -661 800 -800 0 -139 661 -800 800 -800 139 0 800 -661 800 -800 0 -139
661 -800 800 -800 139 0 800 -661 800 -800 0 -139 661 -800 800 -800 139 0
800 -661 800 -800 0 -139 661 -800 800 -800 139 0 800 -661 800 -800 0 -139
661 -800 800 -800 139 0 800 -661 800 -800 0 -139 661 -800 800 -800 139 0
800 -661 800 -800 0 -139 661 -800 800 -800 139 0 800 -661 800 -800 0 -139
661 -800 800 -800 139 0 800 -661 800 -800 0 -139 661 -800 800 -800 139 0
800 -661 800 -800 0 -139 661 -800 800 -800 139 0 800 -661 800 -800 0 -139
661 -800 800 -800 139 0 800 -661 800 -800 0 -139 661 -800 800 -800 139 0
800 -661 800 -800 0 -139 661 -800 800 -800 139 0 800 -661 800 -800 0 -139
661 -800 800 -800 139 0 800 -661 800 -800 0 -139 661 -800 800 -800 139 0
800 -661 800 -800 0 -139 661 -800 800 -800 139 0 800 -661 800 -800 0 -139
661 -800 800 -800 139 0 800 -661 800 -800 0 -139 661 -800 800 -800 139 0
800 -661 800 -800 0 -59 156 -263 347 -453 190 -191 394 -347 453 -347 59 0
263 -156 453 -347 191 -190 347 -394 347 -453 0 -59 156 -263 347 -453 190
-191 394 -347 453 -347 59 0 263 -156 453 -347 191 -190 347 -394 347 -453 0
-59 156 -263 347 -453 190 -191 394 -347 453 -347 59 0 263 -156 453 -347 191
-190 347 -394 347 -453 0 -59 156 -263 347 -453 190 -191 394 -347 453 -347
59 0 263 -156 453 -347 191 -190 347 -394 347 -453 0 -59 156 -263 347 -453
190 -191 394 -347 453 -347 59 0 263 -156 453 -347 191 -190 347 -394 347
-453 0 -59 156 -263 347 -453 190 -191 394 -347 453 -347 59 0 263 -156 453
-347 191 -190 347 -394 347 -453 0 -59 156 -263 347 -453 190 -191 394 -347
453 -347 59 0 263 -156 453 -347 191 -190 347 -394 347 -453 0 -59 156 -263
347 -453 190 -191 394 -347 453 -347 59 0 263 -156 453 -347 191 -190 347
-394 347 -453 0 -59 156 -263 347 -453 190 -191 394 -347 453 -347 59 0 263
-156 453 -347 191 -190 347 -394 347 -453 0 -59 156 -263 347 -453 190 -191
394 -347 453 -347 59 0 263 -156 453 -347 191 -190 347 -394 347 -453 0 -59
156 -263 347 -453 190 -191 394 -347 453 -347 59 0 263 -156 453 -347 191
-190 347 -394 347 -453 0 -59 156 -263 347 -453 190 -191 394 -347 453 -347
59 0 263 -156 453 -347 191 -190 347 -394 347 -453 0 -59 156 -263 347 -453
190 -191 394 -347 453 -347 59 0 263 -156 453 -347 191 -190 347 -394 347
-453 0 -59 156 -263 347 -453 190 -191 394 -347 453 -347 59 0 263 -156 453
-347 191 -190 347 -394 347 -453 0 -59 156 -263 347 -453 190 -191 394 -347
453 -347 139 0 800 -661 800 -800 0 -139 661 -800 800 -800 139 0 800 -661
800 -800 0 -59 156 -263 347 -453 190 -191 394 -347 453 -347 139 0 800 -661
800 -800 0 -139 661 -800 800 -800 139 0 800 -661 800 -800 0 -59 156 -263
347 -453 190 -191 394 -347 453 -347 139 0 800 -661 800 -800 0 -139 661 -800
800 -800 139 0 800 -661 800 -800 0 -139 661 -800 800 -800 59 0 263 -156 453
-347 191 -190 347 -394 347 -453 0 -139 661 -800 800 -800 59 0 263 -156 453
-347 191 -190 347 -394 347 -453 0 -139 661 -800 800 -800 139 0 800 -661 800
-800 0 -139 661 -800 800 -800 139 0 800 -661 800 -800 0 -59 156 -263 347
-453 190 -191 394 -347 453 -347 139 0 800 -661 800 -800 0 -139 661 -800 800
-800 59 0 263 -156 453 -347 191 -190 347 -394 347 -453 0 -139 661 -800 800
-800 139 0 800 -661 800 -800 0 -139 661 -800 800 -800 139 0 800 -662 800
-801 0 -140 459 -599 598 -599 140 0 1002 -862 1002 -1002 0 -163 470 -598
645 -598 85 0 155 -45 155 -100 0 -55 180 -100 400 -100 220 0 400 45 400 100
0 57 300 100 700 100 400 0 700 -43 700 -100 0 -55 90 -100 200 -100 110 0
200 45 200 100 0 55 115 100 255 100 327 0 745 418 745 745 0 140 45 255 100
255 55 0 100 135 100 300 0 165 -45 300 -100 300 -67 0 -100 40533 -100
121400 0 80867 33 121400 100 121400 55 0 100 180 100 400 0 220 -45 400 -100
400 -55 0 -100 70 -100 155 0 175 -435 645 -598 645 -140 0 -1002 862 -1002
1002 0 163 -470 598 -645 598 -85 0 -155 45 -155 100 0 55 -225 100 -500 100
-275 0 -500 -45 -500 -100 0 -67 -25533 -100 -76400 -100 -50867 0 -76400 33
-76400 100 0 55 -225 100 -500 100 -275 0 -500 -45 -500 -100z"/>
  <path d="M309025 282747 c-240 -256 -344 -1547 -125 -1547 67 0 100 -25767
100 -77100 0 -51333 -33 -77100 -100 -77100 -55 0 -100 -90 -100 -200 0 -125
-67 -200 -178 -200 -98 0 -243 -90 -322 -200 -79 -110 -204 -200 -277 -200
-158 0 -623 -446 -623 -599 0 -139 -661 -801 -800 -801 -139 0 -800 -661 -800
-800 0 -139 -661 -800 -800 -800 -139 0 -800 -661 -800 -800 0 -139 -661 -800
-800 -800 -139 0 -800 -661 -800 -800 0 -139 -661 -800 -800 -800 -139 0 -800
-661 -800 -800 0 -139 -661 -800 -800 -800 -139 0 -800 -661 -800 -800 0 -139
-661 -800 -800 -800 -139 0 -800 -661 -800 -800 0 -139 -661 -800 -800 -800
-139 0 -800 -661 -800 -800 0 -139 -661 -800 -800 -800 -139 0 -800 -661 -800
-800 0 -139 -661 -800 -800 -800 -139 0 -800 -661 -800 -800 0 -139 -661 -800
-800 -800 -139 0 -800 -661 -800 -800 0 -139 -661 -800 -800 -800 -139 0 -800
-661 -800 -800 0 -139 -661 -800 -800 -800 -139 0 -800 -661 -800 -800 0 -139
-661 -800 -800 -800 -138 0 -800 -661 -800 -799 0 -139 -863 -1001 -1002
-1001 -408 0 -598 -477 -598 -1499 0 -1495 -223 -1701 -1847 -1701 -1086 0
-1153 -12 -1153 -200 0 -110 -45 -200 -100 -200 -60 0 -100 -418 -100 -1053 0
-1537 -217 -1747 -1804 -1747 -1423 0 -1396 25 -1396 -1343 0 -638 -40 -1057
-100 -1057 -55 0 -100 -90 -100 -200 0 -125 -67 -200 -178 -200 -98 0 -243
-90 -322 -200 -79 -110 -204 -200 -277 -200 -158 0 -623 -446 -623 -599 0
-139 -661 -801 -800 -801 -139 0 -800 -661 -800 -800 0 -139 -661 -800 -800
-800 -139 0 -800 -661 -800 -800 0 -139 -661 -800 -800 -800 -139 0 -800 -661
-800 -800 0 -139 -661 -800 -800 -800 -139 0 -800 -661 -800 -800 0 -139 -661
-800 -800 -800 -139 0 -800 -661 -800 -800 0 -139 -661 -800 -800 -800 -139 0
-800 -661 -800 -800 0 -139 -661 -800 -800 -800 -139 0 -800 -661 -800 -800 0
-139 -661 -800 -800 -800 -139 0 -800 -661 -800 -800 0 -139 -661 -800 -800
-800 -139 0 -800 -661 -800 -800 0 -139 -661 -800 -800 -800 -139 0 -800 -661
-800 -800 0 -139 -661 -800 -800 -800 -139 0 -800 -661 -800 -800 0 -139 -661
-800 -800 -800 -139 0 -800 -661 -800 -800 0 -139 -661 -800 -800 -800 -139 0
-800 -661 -800 -800 0 -139 -661 -800 -800 -800 -139 0 -800 -661 -800 -800 0
-139 -661 -800 -800 -800 -139 0 -800 -661 -800 -800 0 -139 -661 -800 -800
-800 -139 0 -800 -661 -800 -800 0 -139 -661 -800 -800 -800 -139 0 -800 -661
-800 -800 0 -139 -661 -800 -800 -800 -139 0 -800 -661 -800 -800 0 -139 -661
-800 -800 -800 -139 0 -800 -661 -800 -800 0 -139 -661 -800 -800 -800 -138 0
-800 -661 -800 -799 0 -139 -863 -1001 -1002 -1001 -400 0 -598 -480 -598
-1445 0 -570 -40 -955 -100 -955 -55 0 -100 -90 -100 -200 0 -125 -67 -200
-178 -200 -98 0 -243 -90 -322 -200 -79 -110 -204 -200 -277 -200 -158 0 -623
-446 -623 -599 0 -139 -661 -801 -800 -801 -139 0 -800 -661 -800 -800 0 -139
-661 -800 -800 -800 -139 0 -800 -661 -800 -800 0 -139 -661 -800 -800 -800
-139 0 -800 -661 -800 -800 0 -139 -661 -800 -800 -800 -139 0 -800 -661 -800
-800 0 -139 -661 -800 -800 -800 -139 0 -800 -661 -800 -800 0 -139 -661 -800
-800 -800 -139 0 -800 -661 -800 -800 0 -139 -661 -800 -800 -800 -139 0 -800
-661 -800 -800 0 -139 -661 -800 -800 -800 -139 0 -800 -661 -800 -800 0 -139
-661 -800 -800 -800 -139 0 -800 -661 -800 -800 0 -139 -661 -800 -800 -800
-139 0 -800 -661 -800 -800 0 -139 -661 -800 -800 -800 -139 0 -800 -661 -800
-800 0 -139 -661 -800 -800 -800 -139 0 -800 -661 -800 -800 0 -139 -661 -800
-800 -800 -139 0 -800 -661 -800 -800 0 -139 -661 -800 -800 -800 -139 0 -800
-661 -800 -800 0 -139 -661 -800 -800 -800 -139 0 -800 -661 -800 -800 0 -139
-661 -800 -800 -800 -139 0 -800 -661 -800 -800 0 -139 -661 -800 -800 -800
-139 0 -800 -661 -800 -800 0 -139 -661 -800 -800 -800 -138 0 -800 -661 -800
-799 0 -139 -863 -1001 -1002 -1001 -400 0 -598 -480 -598 -1445 0 -570 -40
-955 -100 -955 -55 0 -100 -90 -100 -200 0 -125 -67 -200 -178 -200 -98 0
-243 -90 -322 -200 -79 -110 -204 -200 -277 -200 -158 0 -623 -446 -623 -599
0 -139 -661 -801 -800 -801 -139 0 -800 -661 -800 -800 0 -139 -661 -800 -800
-800 -139 0 -800 -661 -800 -800 0 -139 -661 -800 -800 -800 -139 0 -800 -661
-800 -800 0 -139 -661 -800 -800 -800 -139 0 -800 -661 -800 -800 0 -139 -661
-800 -800 -800 -139 0 -800 -661 -800 -800 0 -139 -661 -800 -800 -800 -59 0
-263 -156 -453 -347 -191 -190 -347 -394 -347 -453 0 -139 -661 -800 -800
-800 -139 0 -800 -661 -800 -800 0 -139 -661 -800 -800 -800 -138 0 -800 -661
-800 -799 0 -139 -863 -1001 -1002 -1001 -163 0 -598 -470 -598 -645 0 -85
-45 -155 -100 -155 -56 0 -100 -267 -100 -600 0 -333 44 -600 100 -600 55 0
100 -70 100 -155 0 -85 110 -265 245 -400 246 -245 246 -245 120600 -245
80170 0 120355 -33 120355 -100 0 -55 135 -100 300 -100 165 0 300 45 300 100
0 55 115 100 255 100 327 0 745 418 745 745 0 140 45 255 100 255 55 0 100
135 100 300 0 165 -45 300 -100 300 -67 0 -100 24533 -100 73400 0 48867 33
73400 100 73400 55 0 100 180 100 400 0 220 -45 400 -100 400 -55 0 -100 70
-100 155 0 175 -435 645 -598 645 -139 0 -1002 862 -1002 1001 0 138 -662 799
-800 799 -139 0 -800 661 -800 800 0 139 -661 800 -800 800 -139 0 -800 661
-800 800 0 139 -661 800 -800 800 -139 0 -800 661 -800 800 0 139 -661 800
-800 800 -139 0 -800 661 -800 800 0 139 -661 800 -800 800 -139 0 -800 661
-800 800 0 139 -661 800 -800 800 -139 0 -800 661 -800 800 0 139 -661 800
-800 800 -139 0 -800 661 -800 800 0 139 -661 800 -800 800 -139 0 -800 661
-800 800 0 139 -661 800 -800 800 -139 0 -800 661 -800 800 0 139 -661 800
-800 800 -139 0 -800 661 -800 800 0 139 -661 800 -800 800 -139 0 -800 661
-800 800 0 139 -661 800 -800 800 -139 0 -800 661 -800 800 0 139 -661 800
-800 800 -139 0 -800 661 -800 800 0 139 -661 800 -800 800 -139 0 -800 661
-800 800 0 139 -661 800 -800 800 -139 0 -800 661 -800 800 0 59 -156 263
-347 453 -190 191 -394 347 -453 347 -59 0 -263 156 -453 347 -191 190 -347
394 -347 453 0 139 -661 800 -800 800 -59 0 -263 156 -453 347 -191 190 -347
394 -347 453 0 59 -156 263 -347 453 -190 191 -394 347 -453 347 -59 0 -263
156 -453 347 -191 190 -347 394 -347 453 0 139 -661 800 -800 800 -59 0 -263
156 -453 347 -191 190 -347 394 -347 453 0 139 -661 800 -800 800 -59 0 -263
156 -453 347 -191 190 -347 394 -347 453 0 59 -156 263 -347 453 -190 191
-394 347 -453 347 -59 0 -263 156 -453 347 -191 190 -347 394 -347 453 0 59
-156 263 -347 453 -190 191 -394 347 -453 347 -139 0 -800 661 -800 800 0 139
-661 800 -800 800 -59 0 -263 156 -453 347 -191 190 -347 394 -347 453 0 59
-156 263 -347 453 -190 191 -394 347 -453 347 -59 0 -263 156 -453 347 -191
190 -347 394 -347 453 0 139 -661 800 -800 800 -59 0 -263 156 -453 347 -191
190 -347 394 -347 453 0 139 -661 800 -800 800 -59 0 -263 156 -453 347 -191
190 -347 394 -347 453 0 59 -156 263 -347 453 -190 191 -394 347 -453 347 -59
0 -263 156 -453 347 -191 190 -347 394 -347 453 0 59 -156 263 -347 453 -190
191 -394 347 -453 347 -59 0 -263 156 -453 347 -191 190 -347 394 -347 453 0
59 -156 263 -347 453 -190 191 -394 347 -453 347 -59 0 -263 156 -453 347
-191 190 -347 394 -347 453 0 139 -661 800 -800 800 -59 0 -263 156 -453 347
-191 190 -347 394 -347 453 0 59 -156 263 -347 453 -190 191 -394 347 -453
347 -59 0 -263 156 -453 347 -191 190 -347 394 -347 453 0 139 -661 800 -800
800 -139 0 -800 661 -800 800 0 139 -661 800 -800 800 -139 0 -800 661 -800
800 0 139 -661 800 -800 800 -59 0 -263 156 -453 347 -191 190 -347 394 -347
453 0 59 -156 263 -347 453 -190 191 -394 347 -453 347 -59 0 -263 156 -453
347 -191 190 -347 394 -347 453 0 59 -156 263 -347 453 -190 191 -394 347
-453 347 -59 0 -263 156 -453 347 -191 190 -347 394 -347 453 0 59 -156 263
-347 453 -190 191 -394 347 -453 347 -59 0 -263 156 -453 347 -191 190 -347
394 -347 453 0 59 -156 263 -347 453 -190 191 -394 347 -453 347 -59 0 -263
156 -453 347 -191 190 -347 394 -347 453 0 59 -156 263 -347 453 -190 191
-394 347 -453 347 -59 0 -263 156 -453 347 -191 190 -347 394 -347 453 0 59
-156 263 -347 453 -190 191 -394 347 -453 347 -59 0 -263 156 -453 347 -191
190 -347 394 -347 453 0 59 -156 263 -347 453 -190 191 -394 347 -453 347 -59
0 -263 156 -453 347 -191 190 -347 394 -347 453 0 59 -156 263 -347 453 -190
191 -394 347 -453 347 -59 0 -263 156 -453 347 -191 190 -347 394 -347 453 0
59 -156 263 -347 453 -190 191 -394 347 -453 347 -59 0 -263 156 -453 347
-191 190 -347 394 -347 453 0 59 -156 263 -347 453 -190 191 -394 347 -453
347 -59 0 -263 156 -453 347 -191 190 -347 394 -347 453 0 59 -156 263 -347
453 -190 191 -394 347 -453 347 -59 0 -263 156 -453 347 -191 190 -347 394
-347 453 0 59 -156 263 -347 453 -190 191 -394 347 -453 347 -59 0 -263 156
-453 347 -191 190 -347 394 -347 453 0 59 -156 263 -347 453 -190 191 -394
347 -453 347 -59 0 -263 156 -453 347 -191 190 -347 394 -347 453 0 59 -156
263 -347 453 -190 191 -394 347 -453 347 -59 0 -263 156 -453 347 -191 190
-347 394 -347 453 0 59 -156 263 -347 453 -190 191 -394 347 -453 347 -59 0
-263 156 -453 347 -191 190 -347 394 -347 453 0 59 -156 263 -347 453 -190
191 -394 347 -453 347 -59 0 -263 156 -453 347 -191 190 -347 394 -347 453 0
59 -156 263 -347 453 -190 191 -394 347 -453 347 -59 0 -263 156 -453 347
-191 190 -347 394 -347 453 0 59 -156 263 -347 453 -190 191 -394 347 -453
347 -59 0 -263 156 -453 347 -191 190 -347 394 -347 453 0 59 -156 263 -347
453 -190 191 -394 347 -453 347 -59 0 -263 156 -453 347 -191 190 -347 394
-347 453 0 59 -156 263 -347 453 -190 191 -394 347 -453 347 -59 0 -263 156
-453 347 -191 190 -347 394 -347 453 0 59 -156 263 -347 453 -190 191 -394
347 -453 347 -59 0 -263 156 -453 347 -191 190 -347 394 -347 453 0 59 -156
263 -347 453 -190 191 -394 347 -453 347 -59 0 -263 156 -453 347 -191 190
-347 394 -347 453 0 59 -156 263 -347 453 -190 191 -394 347 -453 347 -59 0
-263 156 -453 347 -191 190 -347 394 -347 453 0 59 -156 263 -347 453 -190
191 -394 347 -453 347 -59 0 -263 156 -453 347 -191 190 -347 394 -347 453 0
59 -156 263 -347 453 -190 191 -394 347 -453 347 -59 0 -263 156 -453 347
-191 190 -347 394 -347 453 0 59 -156 263 -347 453 -190 191 -394 347 -453
347 -59 0 -263 156 -453 347 -191 190 -347 394 -347 453 0 59 -156 263 -347
453 -190 191 -394 347 -453 347 -59 0 -263 156 -453 347 -191 190 -347 394
-347 453 0 59 -156 263 -347 453 -190 191 -394 347 -453 347 -139 0 -800 661
-800 800 0 139 -661 800 -800 800 -139 0 -800 661 -800 800 0 139 -661 800
-800 800 -59 0 -263 156 -453 347 -191 190 -347 394 -347 453 0 59 -156 263
-347 453 -190 191 -394 347 -453 347 -59 0 -263 156 -453 347 -191 190 -347
394 -347 453 0 59 -156 263 -347 453 -190 191 -394 347 -453 347 -59 0 -263
156 -453 347 -191 190 -347 394 -347 453 0 139 -661 800 -800 800 -139 0 -800
661 -800 800 0 139 -661 800 -800 800 -139 0 -800 661 -800 800 0 139 -661
800 -800 800 -59 0 -263 156 -453 347 -191 190 -347 394 -347 453 0 59 -156
263 -347 453 -190 191 -394 347 -453 347 -59 0 -263 156 -453 347 -191 190
-347 394 -347 453 0 59 -156 263 -347 453 -190 191 -394 347 -453 347 -59 0
-263 156 -453 347 -191 190 -347 394 -347 453 0 59 -156 263 -347 453 -190
191 -394 347 -453 347 -59 0 -263 156 -453 347 -191 190 -347 394 -347 453 0
59 -156 263 -347 453 -190 191 -394 347 -453 347 -59 0 -263 156 -453 347
-191 190 -347 394 -347 453 0 59 -156 263 -347 453 -190 191 -394 347 -453
347 -59 0 -263 156 -453 347 -191 190 -347 394 -347 453 0 139 -661 800 -800
800 -139 0 -800 662 -800 801 0 140 -459 599 -598 599 -140 0 -1002 862 -1002
1002 0 200 -490 598 -737 598 -136 0 -273 56 -305 125 -46 100 -70 100 -116 0
-71 -151 -1242 -175 -1242 -25 0 55 -71 100 -157 100 -87 0 -222 64 -300 143
-79 78 -143 213 -143 300 0 86 -45 157 -100 157 -55 0 -100 69 -100 153 0 85
-156 310 -347 500 -190 191 -415 347 -500 347 -84 0 -153 80 -153 178 0 98
-90 243 -200 322 -110 79 -200 204 -200 277 0 541 -970 803 -1375 370z"/>
  <path d="M9000 247900 c0 -55 -70 -100 -155 -100 -85 0 -265 -110 -400 -245
-245 -246 -245 -246 -245 -119800 0 -79637 -33 -119555 -100 -119555 -55 0
-100 -135 -100 -300 0 -165 45 -300 100 -300 55 0 100 -115 100 -255 0 -327
418 -745 745 -745 140 0 255 -45 255 -100 0 -55 135 -100 300 -100 165 0 300
45 300 100 0 67 25833 100 77300 100 51467 0 77300 -33 77300 -100 0 -55 225
-100 500 -100 275 0 500 45 500 100 0 55 70 100 155 100 175 0 645 435 645
598 0 140 862 1002 1002 1002 139 0 598 459 598 599 0 139 661 801 800 801
139 0 800 661 800 800 0 139 661 800 800 800 139 0 800 661 800 800 0 139 661
800 800 800 139 0 800 661 800 800 0 139 661 800 800 800 139 0 800 661 800
800 0 139 661 800 800 800 139 0 800 661 800 800 0 139 661 800 800 800 139 0
800 661 800 800 0 139 661 800 800 800 139 0 800 661 800 800 0 139 661 800
800 800 139 0 800 661 800 800 0 139 661 800 800 800 139 0 800 661 800 800 0
139 661 800 800 800 139 0 800 661 800 800 0 139 661 800 800 800 139 0 800
661 800 800 0 139 661 800 800 800 139 0 800 661 800 800 0 139 661 800 800
800 139 0 800 661 800 800 0 139 661 800 800 800 139 0 800 661 800 800 0 139
661 800 800 800 138 0 800 661 800 799 0 139 863 1001 1002 1001 400 0 598
480 598 1445 0 570 40 955 100 955 55 0 100 90 100 200 0 125 67 200 178 200
98 0 243 90 322 200 79 110 204 200 277 200 158 0 623 446 623 599 0 139 661
801 800 801 139 0 800 661 800 800 0 139 661 800 800 800 139 0 800 661 800
800 0 139 661 800 800 800 139 0 800 661 800 800 0 139 661 800 800 800 139 0
800 661 800 800 0 139 661 800 800 800 139 0 800 661 800 800 0 59 156 263
347 453 190 191 394 347 453 347 139 0 800 661 800 800 0 139 661 800 800 800
139 0 800 661 800 800 0 139 661 800 800 800 139 0 800 661 800 800 0 139 661
800 800 800 139 0 800 661 800 800 0 139 661 800 800 800 139 0 800 661 800
800 0 139 661 800 800 800 139 0 800 661 800 800 0 139 661 800 800 800 139 0
800 661 800 800 0 139 661 800 800 800 139 0 800 661 800 800 0 139 661 800
800 800 139 0 800 661 800 800 0 139 661 800 800 800 139 0 800 661 800 800 0
139 661 800 800 800 139 0 800 661 800 800 0 139 661 800 800 800 139 0 800
661 800 800 0 139 661 800 800 800 139 0 800 661 800 800 0 139 661 800 800
800 139 0 800 661 800 800 0 139 661 800 800 800 139 0 800 661 800 800 0 139
661 800 800 800 139 0 800 661 800 800 0 139 661 800 800 800 139 0 800 661
800 800 0 139 661 800 800 800 138 0 800 661 800 799 0 139 863 1001 1002
1001 408 0 598 477 598 1499 0 1486 228 1701 1804 1701 1423 0 1396 -25 1396
1343 0 638 40 1057 100 1057 55 0 100 90 100 200 0 125 67 200 178 200 98 0
243 90 322 200 79 110 204 200 277 200 158 0 623 446 623 599 0 139 661 801
800 801 139 0 800 661 800 800 0 139 661 800 800 800 139 0 800 661 800 800 0
139 661 800 800 800 139 0 800 661 800 800 0 139 661 800 800 800 139 0 800
661 800 800 0 139 661 800 800 800 139 0 800 661 800 800 0 139 661 800 800
800 139 0 800 661 800 800 0 139 661 800 800 800 139 0 800 661 800 800 0 139
661 800 800 800 139 0 800 661 800 800 0 139 661 800 800 800 139 0 800 661
800 800 0 139 661 800 800 800 139 0 800 661 800 800 0 139 661 800 800 800
139 0 800 661 800 800 0 139 661 800 800 800 139 0 800 661 800 800 0 139 661
800 800 800 139 0 800 661 800 800 0 139 661 800 800 800 59 0 263 156 453
347 191 190 347 394 347 453 0 139 661 800 800 800 139 0 800 661 800 800 0
139 661 800 800 800 139 0 800 661 800 800 0 139 661 800 800 800 139 0 800
661 800 800 0 139 661 800 800 800 138 0 800 661 800 799 0 139 863 1001 1002
1001 400 0 598 480 598 1445 0 570 40 955 100 955 55 0 100 90 100 200 0 125
67 200 178 200 98 0 243 90 322 200 79 110 204 200 277 200 171 0 623 452 623
623 0 73 90 198 200 277 110 79 200 224 200 322 0 111 75 178 200 178 110 0
200 45 200 100 0 55 225 100 500 100 275 0 500 -45 500 -100 0 -55 90 -100
200 -100 110 0 200 45 200 100 0 55 115 100 255 100 253 0 745 395 745 598 0
140 862 1002 1002 1002 139 0 598 459 598 599 0 139 661 801 800 801 138 0
800 661 800 799 0 139 863 1001 1002 1001 400 0 598 480 598 1445 0 570 40
955 100 955 55 0 100 90 100 200 0 125 67 200 178 200 98 0 243 90 322 200 79
110 204 200 277 200 158 0 623 446 623 599 0 139 661 801 800 801 138 0 800
661 800 799 0 139 863 1001 1002 1001 163 0 598 470 598 645 0 85 45 155 100
155 56 0 100 267 100 600 0 333 -44 600 -100 600 -55 0 -100 70 -100 155 0 85
-110 265 -245 400 -246 245 -246 245 -77200 245 -51237 0 -76955 33 -76955
100 0 55 -90 100 -200 100 -125 0 -200 67 -200 178 0 98 -90 243 -200 322
-110 79 -200 204 -200 277 0 158 -446 623 -598 623 -139 0 -1002 862 -1002
1001 0 138 -662 799 -800 799 -59 0 -263 156 -453 347 -191 190 -347 394 -347
453 0 59 -156 263 -347 453 -190 191 -394 347 -453 347 -59 0 -263 156 -453
347 -191 190 -347 394 -347 453 0 59 -156 263 -347 453 -190 191 -394 347
-453 347 -59 0 -263 156 -453 347 -191 190 -347 394 -347 453 0 59 -156 263
-347 453 -190 191 -394 347 -453 347 -139 0 -800 662 -800 801 0 140 -459 599
-598 599 -59 0 -309 201 -555 447 -246 246 -447 496 -447 555 0 203 -492 598
-745 598 -140 0 -255 45 -255 100 0 55 -135 100 -300 100 -165 0 -300 -45
-300 -100 0 -278 -908 -99 -1253 247 -347 346 -347 346 -347 1400 0 635 -40
1053 -100 1053 -55 0 -100 90 -100 200 0 188 -67 200 -1153 200 -1635 0 -1847
200 -1847 1747 0 635 -40 1053 -100 1053 -55 0 -100 90 -100 200 0 188 -67
200 -1153 200 -1649 0 -1847 194 -1847 1804 0 1423 25 1396 -1343 1396 -638 0
-1057 40 -1057 100 0 55 -90 100 -200 100 -125 0 -200 67 -200 178 0 98 -90
243 -200 322 -110 79 -200 204 -200 277 0 158 -446 623 -598 623 -139 0 -1002
862 -1002 1001 0 138 -662 799 -800 799 -59 0 -263 156 -453 347 -191 190
-347 394 -347 453 0 139 -661 800 -800 800 -59 0 -263 156 -453 347 -191 190
-347 394 -347 453 0 139 -661 800 -800 800 -59 0 -263 156 -453 347 -191 190
-347 394 -347 453 0 139 -661 800 -800 800 -59 0 -263 156 -453 347 -191 190
-347 394 -347 453 0 139 -661 800 -800 800 -59 0 -263 156 -453 347 -191 190
-347 394 -347 453 0 139 -661 800 -800 800 -59 0 -263 156 -453 347 -191 190
-347 394 -347 453 0 139 -661 800 -800 800 -59 0 -263 156 -453 347 -191 190
-347 394 -347 453 0 139 -661 800 -800 800 -139 0 -800 661 -800 800 0 139
-661 800 -800 800 -59 0 -263 156 -453 347 -191 190 -347 394 -347 453 0 139
-661 800 -800 800 -59 0 -263 156 -453 347 -191 190 -347 394 -347 453 0 139
-661 800 -800 800 -59 0 -263 156 -453 347 -191 190 -347 394 -347 453 0 139
-661 800 -800 800 -139 0 -800 661 -800 800 0 139 -661 800 -800 800 -139 0
-800 661 -800 800 0 59 -156 263 -347 453 -190 191 -394 347 -453 347 -59 0
-263 156 -453 347 -191 190 -347 394 -347 453 0 139 -661 800 -800 800 -59 0
-263 156 -453 347 -191 190 -347 394 -347 453 0 59 -156 263 -347 453 -190
191 -394 347 -453 347 -59 0 -263 156 -453 347 -191 190 -347 394 -347 453 0
139 -661 800 -800 800 -59 0 -263 156 -453 347 -191 190 -347 394 -347 453 0
59 -156 263 -347 453 -190 191 -394 347 -453 347 -139 0 -800 661 -800 800 0
59 -156 263 -347 453 -190 191 -394 347 -453 347 -59 0 -263 156 -453 347
-191 190 -347 394 -347 453 0 139 -661 800 -800 800 -59 0 -263 156 -453 347
-191 190 -347 394 -347 453 0 59 -156 263 -347 453 -190 191 -394 347 -453
347 -59 0 -263 156 -453 347 -191 190 -347 394 -347 453 0 139 -661 800 -800
800 -59 0 -263 156 -453 347 -191 190 -347 394 -347 453 0 59 -156 263 -347
453 -190 191 -394 347 -453 347 -139 0 -800 661 -800 800 0 59 -156 263 -347
453 -190 191 -394 347 -453 347 -59 0 -263 156 -453 347 -191 190 -347 394
-347 453 0 139 -661 800 -800 800 -59 0 -263 156 -453 347 -191 190 -347 394
-347 453 0 59 -156 263 -347 453 -190 191 -394 347 -453 347 -59 0 -263 156
-453 347 -191 190 -347 394 -347 453 0 139 -661 800 -800 800 -59 0 -263 156
-453 347 -191 190 -347 394 -347 453 0 59 -156 263 -347 453 -190 191 -394
347 -453 347 -139 0 -800 661 -800 800 0 139 -661 800 -800 800 -59 0 -263
156 -453 347 -191 190 -347 394 -347 453 0 139 -661 800 -800 800 -139 0 -800
661 -800 800 0 139 -661 800 -800 800 -139 0 -800 661 -800 800 0 59 -156 263
-347 453 -190 191 -394 347 -453 347 -139 0 -800 661 -800 800 0 139 -661 800
-800 800 -139 0 -800 661 -800 800 0 139 -661 800 -800 800 -139 0 -800 661
-800 800 0 139 -661 800 -800 800 -139 0 -800 661 -800 800 0 139 -661 800
-800 800 -139 0 -800 661 -800 800 0 139 -661 800 -800 800 -139 0 -800 661
-800 800 0 139 -661 800 -800 800 -139 0 -800 661 -800 800 0 139 -661 800
-800 800 -139 0 -800 661 -800 800 0 139 -661 800 -800 800 -139 0 -800 661
-800 800 0 139 -661 800 -800 800 -139 0 -800 661 -800 800 0 139 -661 800
-800 800 -139 0 -800 661 -800 800 0 139 -661 800 -800 800 -139 0 -800 661
-800 800 0 139 -661 800 -800 800 -139 0 -800 661 -800 800 0 139 -661 800
-800 800 -139 0 -800 661 -800 800 0 139 -661 800 -800 800 -139 0 -800 661
-800 800 0 139 -661 800 -800 800 -139 0 -800 661 -800 800 0 139 -661 800
-800 800 -139 0 -800 661 -800 800 0 139 -661 800 -800 800 -139 0 -800 661
-800 800 0 139 -661 800 -800 800 -139 0 -800 661 -800 800 0 139 -661 800
-800 800 -139 0 -800 661 -800 800 0 139 -661 800 -800 800 -139 0 -800 661
-800 800 0 139 -661 800 -800 800 -139 0 -800 661 -800 800 0 139 -661 800
-800 800 -139 0 -800 661 -800 800 0 139 -661 800 -800 800 -139 0 -800 661
-800 800 0 139 -661 800 -800 800 -139 0 -800 661 -800 800 0 139 -661 800
-800 800 -139 0 -800 662 -800 801 0 140 -459 599 -598 599 -140 0 -1002 862
-1002 1002 0 163 -470 598 -645 598 -85 0 -155 45 -155 100 0 56 -267 100
-600 100 -333 0 -600 -44 -600 -100z"/>
</g>
</g></g>
<text x="786" y="406" font-family="Outfit, 'Outfit-SemiBold', Inter, system-ui, sans-serif" font-weight="600" font-size="303" fill="#F1EFE9" letter-spacing="-2">CapIX</text>
</svg>